<svg fill="none" height="105" viewBox="0 0 88 105" width="88" xmlns="http://www.w3.org/2000/svg" xmlns:xlink="http://www.w3.org/1999/xlink"><linearGradient id="a"><stop offset="0" stop-color="#ff7300"/><stop offset="1" stop-color="#f10014"/></linearGradient><linearGradient id="b" gradientUnits="userSpaceOnUse" x1="44.6935" x2="43.6691" xlink:href="#a" y1="1.10216" y2="63.7115"/><linearGradient id="c" gradientUnits="userSpaceOnUse" x1="45.3678" x2="45.0784" xlink:href="#a" y1="61.2434" y2="104.913"/><linearGradient id="d" gradientUnits="userSpaceOnUse" x1="44.0514" x2="43.965" xlink:href="#a" y1="65.2401" y2="75.4138"/><path d="m23.5659 45.29c2.4861 10.7613 10.7866 18.423 20.1905 18.423 9.4074 0 17.7079-7.6617 20.1904-18.423 3.0742-1.2086 5.2264-4.5549 5.2264-8.442 0-2.4499-.8747-4.6457-2.2502-6.268.9654-38.91472-30.0807-31.82646-34.3416-25.9359-8.1299-2.92169-11.7412 4.7618-12.1223 12.7647-.2831 6.0393-.0472 11.0988.0871 13.222-1.3538 1.6151-2.2067 3.7927-2.2067 6.2172 0 3.8871 2.1523 7.2334 5.2264 8.442zm38.1416-4.1085c-.9945.1234-1.7929.882-1.9672 1.8692-1.6586 9.3239-8.3839 16.0928-15.9839 16.0928-7.6001 0-14.3254-6.7689-15.984-16.0928-.1742-.9836-.9727-1.7422-1.9672-1.8692-1.6223-.2032-2.8926-2.1051-2.8926-4.3299 0-2.3301 1.3864-4.3009 3.056-4.3807.0907.0109.2068.0254.2576.029 1.0272.0762 2.0144-.5807 2.3374-1.5824.2504-.7803.5444-1.5244.8602-2.2466 3.7165-2.5043 7.2298-7.1282 7.2298-7.1282 5.1755.0327 14.2818 3.4988 21.1523 6.4713.4355.9182.8238 1.8873 1.1469 2.9035.323 1.0017 1.2848 1.655 2.3409 1.5824.0436-.0036.1561-.0181.2505-.029 1.6695.0762 3.0596 2.0506 3.0596 4.3807 0 2.2212-1.2703 4.1267-2.8963 4.3299z" fill="url(#b)"/><path d="m66.3749 60.5051c-.842-.1343-1.6804.2068-2.1922.8855l-20.4264 27.228-20.43-27.228c-.5081-.6823-1.3501-1.0235-2.1922-.8855-.8601.1379-21.1341 3.5604-21.1341 19.1343v15.327c0 6.2206 3.98874 9.9376 10.6669 9.9376h66.1789c6.6781 0 10.6632-3.713 10.6632-9.9376v-15.327c.0037-15.5739-20.2667-18.9964-21.1341-19.1343zm-53.6719 39.8219h-2.0361c-6.09383 0-6.09383-4.0358-6.09383-5.3642v-15.3271c0-5.6328 3.98874-9.2187 8.12993-11.4326zm70.2366-5.3642c0 1.3284 0 5.3642-6.0938 5.3642h-2.0398v-32.1385c4.1448 2.2104 8.13 5.7962 8.13 11.4509z" fill="url(#c)"/><path d="m48.4564 65.4375c-1.2667.6206-3.0995 1.5244-4.7001 2.3083-1.5969-.7839-3.4298-1.6877-4.7001-2.3083-1.7893-.882-3.252-.1597-3.252 1.5969v6.4023c0 1.7603 1.4627 2.4789 3.252 1.6006 1.2703-.6242 3.0995-1.5243 4.7001-2.3119 1.6006.7876 3.4334 1.6877 4.7001 2.3119 1.7893.8783 3.2556.1597 3.2556-1.6006 0-1.7602 0-4.642 0-6.4023 0-1.7566-1.4663-2.4789-3.2556-1.5969z" fill="url(#d)"/></svg>